<?xml version="1.0" encoding="UTF-8" standalone="no"?>
<svg
   xmlns:dc="http://purl.org/dc/elements/1.1/"
   xmlns:cc="http://creativecommons.org/ns#"
   xmlns:rdf="http://www.w3.org/1999/02/22-rdf-syntax-ns#"
   xmlns:svg="http://www.w3.org/2000/svg"
   xmlns="http://www.w3.org/2000/svg"
   xmlns:sodipodi="http://sodipodi.sourceforge.net/DTD/sodipodi-0.dtd"
   xmlns:inkscape="http://www.inkscape.org/namespaces/inkscape"
   version="1.1"
   x="0px"
   y="0px"
   width="32px"
   height="32px"
   viewBox="0 0 32 32"
   enable-background="new 0 0 32 32"
   xml:space="preserve"
   id="svg2"
   inkscape:version="0.48.5 r10040"
   sodipodi:docname="data_privacy.svg"><defs
     id="defs3155" /><sodipodi:namedview
     pagecolor="#ffffff"
     bordercolor="#666666"
     borderopacity="1"
     objecttolerance="10"
     gridtolerance="10"
     guidetolerance="10"
     inkscape:pageopacity="0"
     inkscape:pageshadow="2"
     inkscape:window-width="1600"
     inkscape:window-height="873"
     id="namedview3153"
     showgrid="false"
     inkscape:zoom="7.375"
     inkscape:cx="-26.915254"
     inkscape:cy="16"
     inkscape:window-x="0"
     inkscape:window-y="27"
     inkscape:window-maximized="1"
     inkscape:current-layer="layer1" /><metadata
     id="metadata3143"><rdf:RDF><cc:Work
         rdf:about=""><dc:format>image/svg+xml</dc:format><dc:type
           rdf:resource="http://purl.org/dc/dcmitype/StillImage" /><dc:title>PICOL Icon</dc:title><dc:date>2009-03-15</dc:date><dc:creator><cc:Agent><dc:title>Melih Bilgil</dc:title></cc:Agent></dc:creator><dc:rights><cc:Agent><dc:title>Creative Commons BY-SA</dc:title></cc:Agent></dc:rights><dc:publisher><cc:Agent><dc:title>PICOL - Pictorial Communication Language</dc:title></cc:Agent></dc:publisher><dc:identifier>http://blog.picol.org</dc:identifier><dc:source>http://blog.picol.org</dc:source><dc:language>en</dc:language><dc:subject><rdf:Bag><rdf:li>PICOL</rdf:li><rdf:li>icon</rdf:li><rdf:li>icons</rdf:li><rdf:li>sign</rdf:li><rdf:li>GUI</rdf:li><rdf:li>vector</rdf:li><rdf:li>interface</rdf:li></rdf:Bag></dc:subject><dc:description>This is one icon out of all PICOL icons</dc:description><dc:contributor><cc:Agent><dc:title>Melih Bilgil (www.lonja.de), Christopher Adjei (www.boffer.net)</dc:title></cc:Agent></dc:contributor><cc:license
           rdf:resource="http://creativecommons.org/licenses/by-sa/3.0/" /></cc:Work><cc:License
         rdf:about="http://creativecommons.org/licenses/by-sa/3.0/"><cc:permits
           rdf:resource="http://creativecommons.org/ns#Reproduction" /><cc:permits
           rdf:resource="http://creativecommons.org/ns#Distribution" /><cc:requires
           rdf:resource="http://creativecommons.org/ns#Notice" /><cc:requires
           rdf:resource="http://creativecommons.org/ns#Attribution" /><cc:permits
           rdf:resource="http://creativecommons.org/ns#DerivativeWorks" /><cc:requires
           rdf:resource="http://creativecommons.org/ns#ShareAlike" /></cc:License></rdf:RDF></metadata><g
     inkscape:groupmode="layer"
     id="layer1"
     inkscape:label="Livello 1"
     style="display:inline"><rect
       style="fill:#f14623;fill-opacity:1"
       id="rect2985"
       width="32.677967"
       height="32.81356"
       x="0"
       y="-0.13559322" /></g><g
     id="background"><rect
       fill="none"
       width="32"
       height="32"
       id="rect3146" /></g><path
     id="path3151"
     d="m 21.70646,19.375 c 0.0045,-0.07369 0.0079,-0.150188 0.0079,-0.230063 -0.0034,-0.381375 -0.0495,-0.83925 -0.31276,-1.270687 -0.25707,-0.438188 -0.8089,-0.765 -1.463671,-0.749813 -0.655333,-0.01519 -1.208287,0.311625 -1.465358,0.749813 -0.264383,0.431437 -0.31051,0.889312 -0.31276,1.270687 0,0.08044 0.0034,0.156376 0.0079,0.230063 h -0.479827 v 2.8125 h 4.500141 V 19.375 H 21.70646 z m -2.422764,-0.230063 c -0.0023,-0.268875 0.05231,-0.538875 0.14288,-0.673874 0.09732,-0.127688 0.15188,-0.205876 0.511328,-0.221626 0.358324,0.01519 0.410638,0.09281 0.508516,0.221626 0.09113,0.134999 0.145692,0.406687 0.142317,0.673874 0,0.08156 -0.0045,0.157501 -0.01069,0.230063 h -1.283665 c -0.0056,-0.07369 -0.01069,-0.15075 -0.01069,-0.230063 z M 13.750211,17.125 c 1.242601,0 2.25007,-1.007438 2.25007,-2.25 0,-1.242562 -1.007469,-2.25 -2.25007,-2.25 -1.242601,0 -2.25007,1.007438 -2.25007,2.25 0,1.242562 1.007469,2.25 2.25007,2.25 z m 6.750211,-2.216813 V 10.141 L 17.358199,7 H 7 V 25 H 20.500422 V 24.96625 C 23.031188,24.686125 25,22.543 25,19.9375 25,17.332 23.031188,15.188313 20.500422,14.908187 z M 17.124191,8.357312 19.142504,10.375 H 17.124191 V 8.357312 z M 8.1250352,23.875 V 8.123875 h 7.8752458 v 3.375562 h 3.375106 v 3.40875 c -1.955874,0.216563 -3.570862,1.546875 -4.205944,3.341813 -2.003688,0 -4.794337,0 -4.794337,0 0,0 -1.1250357,0 -1.1250357,1.125 0,0.5625 0,3.375 0,3.375 h 6.4790777 c 0.284634,0.42525 0.632832,0.804375 1.030532,1.125 H 8.1250352 z m 11.8128688,-5.63e-4 c -2.17413,-0.0045 -3.934248,-1.763437 -3.937623,-3.936937 0.0034,-2.174063 1.763493,-3.934125 3.937623,-3.9375 2.173568,0.0034 3.932561,1.763437 3.937061,3.9375 -0.0045,2.1735 -1.763493,3.932437 -3.937061,3.936937 z"
     inkscape:connector-curvature="0" /><g
     inkscape:groupmode="layer"
     id="layer2"
     inkscape:label="sfondo"
     style="display:inline" /></svg>