<?xml version="1.0" encoding="UTF-8" standalone="no"?>
<svg
   xmlns:dc="http://purl.org/dc/elements/1.1/"
   xmlns:cc="http://creativecommons.org/ns#"
   xmlns:rdf="http://www.w3.org/1999/02/22-rdf-syntax-ns#"
   xmlns:svg="http://www.w3.org/2000/svg"
   xmlns="http://www.w3.org/2000/svg"
   xmlns:sodipodi="http://sodipodi.sourceforge.net/DTD/sodipodi-0.dtd"
   xmlns:inkscape="http://www.inkscape.org/namespaces/inkscape"
   version="1.1"
   x="0px"
   y="0px"
   width="32px"
   height="32px"
   viewBox="0 0 32 32"
   enable-background="new 0 0 32 32"
   xml:space="preserve"
   id="svg2"
   inkscape:version="0.48.5 r10040"
   sodipodi:docname="download.svg"><defs
     id="defs15" /><sodipodi:namedview
     pagecolor="#ffffff"
     bordercolor="#666666"
     borderopacity="1"
     objecttolerance="10"
     gridtolerance="10"
     guidetolerance="10"
     inkscape:pageopacity="0"
     inkscape:pageshadow="2"
     inkscape:window-width="1600"
     inkscape:window-height="873"
     id="namedview13"
     showgrid="false"
     inkscape:zoom="7.375"
     inkscape:cx="-1.0169492"
     inkscape:cy="16"
     inkscape:window-x="0"
     inkscape:window-y="27"
     inkscape:window-maximized="1"
     inkscape:current-layer="layer2" /><metadata
     id="metadata3"><rdf:RDF><cc:Work
         rdf:about=""><dc:format>image/svg+xml</dc:format><dc:type
           rdf:resource="http://purl.org/dc/dcmitype/StillImage" /><dc:title>PICOL Icon</dc:title><dc:date>2009-03-15</dc:date><dc:creator><cc:Agent><dc:title>Melih Bilgil</dc:title></cc:Agent></dc:creator><dc:rights><cc:Agent><dc:title>Creative Commons BY-SA</dc:title></cc:Agent></dc:rights><dc:publisher><cc:Agent><dc:title>PICOL - Pictorial Communication Language</dc:title></cc:Agent></dc:publisher><dc:identifier>http://blog.picol.org</dc:identifier><dc:source>http://blog.picol.org</dc:source><dc:language>en</dc:language><dc:subject><rdf:Bag><rdf:li>PICOL</rdf:li><rdf:li>icon</rdf:li><rdf:li>icons</rdf:li><rdf:li>sign</rdf:li><rdf:li>GUI</rdf:li><rdf:li>vector</rdf:li><rdf:li>interface</rdf:li></rdf:Bag></dc:subject><dc:description>This is one icon out of all PICOL icons</dc:description><dc:contributor><cc:Agent><dc:title>Melih Bilgil (www.lonja.de), Christopher Adjei (www.boffer.net)</dc:title></cc:Agent></dc:contributor><cc:license
           rdf:resource="http://creativecommons.org/licenses/by-sa/3.0/" /></cc:Work><cc:License
         rdf:about="http://creativecommons.org/licenses/by-sa/3.0/"><cc:permits
           rdf:resource="http://creativecommons.org/ns#Reproduction" /><cc:permits
           rdf:resource="http://creativecommons.org/ns#Distribution" /><cc:requires
           rdf:resource="http://creativecommons.org/ns#Notice" /><cc:requires
           rdf:resource="http://creativecommons.org/ns#Attribution" /><cc:permits
           rdf:resource="http://creativecommons.org/ns#DerivativeWorks" /><cc:requires
           rdf:resource="http://creativecommons.org/ns#ShareAlike" /></cc:License></rdf:RDF></metadata><g
     id="background"><rect
       fill="none"
       width="32"
       height="32"
       id="rect6" /></g><g
     inkscape:groupmode="layer"
     id="layer1"
     inkscape:label="sfondo"
     style="display:inline"><rect
       style="fill:#ff6600"
       id="rect2985"
       width="32.271187"
       height="32.40678"
       x="0"
       y="0.13559322" /></g><g
     inkscape:groupmode="layer"
     id="layer2"
     inkscape:label="Livello 1"
     style="display:inline"><path
       id="polygon11"
       d="m 14.714286,7 2.571428,0 0,4.5 2.571429,0 L 16,16 l -3.857143,-4.5 2.571429,0 z M 7,19 v 6 H 25 V 19 H 7 z m 3.857143,4.5 H 8.2857143 V 22 h 2.5714287 v 1.5 z"
       inkscape:connector-curvature="0" /><path
       style="fill:#f14623;fill-opacity:1"
       d="m 0.04067792,16.379661 0,-16.1355932 16.06779708,0 16.067796,0 0,16.1355932 0,16.135593 -16.067796,0 -16.06779708,0 0,-16.135593 z m 25.08474608,5.627119 0,-3.050848 -9.084746,0 -9.0847458,0 0,3.050848 0,3.050847 9.0847458,0 9.084746,0 0,-3.050847 z m -7.20604,-8.131706 c 1.054848,-1.228371 1.917904,-2.265659 1.917904,-2.305085 0,-0.03943 -0.549152,-0.07168 -1.220339,-0.07168 l -1.220339,0 0,-2.3050847 0,-2.3050847 -1.355932,0 -1.355932,0 0,2.3001746 0,2.3001748 -1.295797,0.03881 -1.295796,0.03881 1.939864,2.270806 c 1.066926,1.248944 1.9463,2.270978 1.954164,2.271187 0.0079,2.71e-4 0.877357,-1.004651 1.932203,-2.233021 z"
       id="path2987"
       inkscape:connector-curvature="0" /></g></svg>