<?xml version="1.0" encoding="UTF-8" standalone="no"?>
<svg
   xmlns:dc="http://purl.org/dc/elements/1.1/"
   xmlns:cc="http://creativecommons.org/ns#"
   xmlns:rdf="http://www.w3.org/1999/02/22-rdf-syntax-ns#"
   xmlns:svg="http://www.w3.org/2000/svg"
   xmlns="http://www.w3.org/2000/svg"
   xmlns:sodipodi="http://sodipodi.sourceforge.net/DTD/sodipodi-0.dtd"
   xmlns:inkscape="http://www.inkscape.org/namespaces/inkscape"
   version="1.1"
   x="0px"
   y="0px"
   width="32px"
   height="32px"
   viewBox="0 0 32 32"
   enable-background="new 0 0 32 32"
   xml:space="preserve"
   id="svg2"
   inkscape:version="0.48.5 r10040"
   sodipodi:docname="group_full.svg"><defs
     id="defs3314" /><sodipodi:namedview
     pagecolor="#ffffff"
     bordercolor="#666666"
     borderopacity="1"
     objecttolerance="10"
     gridtolerance="10"
     guidetolerance="10"
     inkscape:pageopacity="0"
     inkscape:pageshadow="2"
     inkscape:window-width="1600"
     inkscape:window-height="873"
     id="namedview3312"
     showgrid="false"
     inkscape:zoom="14.75"
     inkscape:cx="-9.0384282"
     inkscape:cy="17.024846"
     inkscape:window-x="0"
     inkscape:window-y="27"
     inkscape:window-maximized="1"
     inkscape:current-layer="layer1" /><metadata
     id="metadata3302"><rdf:RDF><cc:Work
         rdf:about=""><dc:format>image/svg+xml</dc:format><dc:type
           rdf:resource="http://purl.org/dc/dcmitype/StillImage" /><dc:title>PICOL Icon</dc:title><dc:date>2009-03-15</dc:date><dc:creator><cc:Agent><dc:title>Melih Bilgil</dc:title></cc:Agent></dc:creator><dc:rights><cc:Agent><dc:title>Creative Commons BY-SA</dc:title></cc:Agent></dc:rights><dc:publisher><cc:Agent><dc:title>PICOL - Pictorial Communication Language</dc:title></cc:Agent></dc:publisher><dc:identifier>http://blog.picol.org</dc:identifier><dc:source>http://blog.picol.org</dc:source><dc:language>en</dc:language><dc:subject><rdf:Bag><rdf:li>PICOL</rdf:li><rdf:li>icon</rdf:li><rdf:li>icons</rdf:li><rdf:li>sign</rdf:li><rdf:li>GUI</rdf:li><rdf:li>vector</rdf:li><rdf:li>interface</rdf:li></rdf:Bag></dc:subject><dc:description>This is one icon out of all PICOL icons</dc:description><dc:contributor><cc:Agent><dc:title>Melih Bilgil (www.lonja.de), Christopher Adjei (www.boffer.net)</dc:title></cc:Agent></dc:contributor><cc:license
           rdf:resource="http://creativecommons.org/licenses/by-sa/3.0/" /></cc:Work><cc:License
         rdf:about="http://creativecommons.org/licenses/by-sa/3.0/"><cc:permits
           rdf:resource="http://creativecommons.org/ns#Reproduction" /><cc:permits
           rdf:resource="http://creativecommons.org/ns#Distribution" /><cc:requires
           rdf:resource="http://creativecommons.org/ns#Notice" /><cc:requires
           rdf:resource="http://creativecommons.org/ns#Attribution" /><cc:permits
           rdf:resource="http://creativecommons.org/ns#DerivativeWorks" /><cc:requires
           rdf:resource="http://creativecommons.org/ns#ShareAlike" /></cc:License></rdf:RDF></metadata><g
     id="background"><rect
       fill="none"
       width="32"
       height="32"
       id="rect3305" /></g><g
     inkscape:groupmode="layer"
     id="layer1"
     inkscape:label="sfondo"
     style="display:inline"><rect
       style="fill:#ff6600;display:inline;fill-opacity:1"
       id="rect3758"
       width="32.271187"
       height="32.271187"
       x="0"
       y="-0.067796625" /><path
       style="fill:#f14623;fill-opacity:1"
       d="m 0.03275824,16.080239 0,-16.10169517 16.10169476,0 16.101695,0 0,16.10169517 0,16.101695 -16.101695,0 -16.10169476,0 0,-16.101695 z m 12.13559276,6.374173 0,-2.608878 -0.18644,-0.0407 c -0.598333,-0.130618 -0.924888,-0.426353 -1.036002,-0.938225 -0.08682,-0.39997 -0.05666,-6.932735 0.03348,-7.250559 l 0.05474,-0.193003 -1.5515308,0.02512 c -1.440718,0.02333 -1.5716522,0.03577 -1.8332577,0.174163 -0.6778555,0.358601 -0.7165016,0.563915 -0.6889783,3.660319 0.019156,2.155103 0.034737,2.448817 0.1401255,2.641542 0.1556101,0.284565 0.4898413,0.531824 0.8475288,0.626987 l 0.2881356,0.07666 0,3.217725 0,3.217727 1.9661019,0 1.966101,0 0,-2.608878 0,0 z m 6.440678,-0.606651 0,-3.215528 0.357816,-0.10402 c 0.356241,-0.103562 0.620167,-0.317544 0.803392,-0.651364 0.07291,-0.132846 0.09772,-0.711857 0.114721,-2.677966 0.02313,-2.674391 0.0057,-2.862313 -0.302992,-3.271258 -0.353006,-0.467622 -0.27492,-0.457556 -3.549208,-0.457556 l -2.949152,0 -0.302461,0.169492 c -0.386661,0.216675 -0.592639,0.52527 -0.647128,0.969522 -0.02378,0.193882 -0.03341,1.420308 -0.0214,2.725393 0.01703,1.850827 0.0423,2.410171 0.114866,2.542373 0.183225,0.33382 0.44715,0.547802 0.803392,0.651364 l 0.357815,0.10402 0,3.215528 0,3.215529 2.61017,0 2.610169,0 0,-3.215529 0,0 z m 5.152543,-0.0022 0,-3.217726 0.288135,-0.07666 c 0.357688,-0.09516 0.691919,-0.342422 0.847529,-0.626987 0.105531,-0.192985 0.120946,-0.488644 0.140148,-2.688053 0.02317,-2.65436 -8.54e-4,-2.91402 -0.306797,-3.315636 -0.307556,-0.403732 -0.487606,-0.442029 -2.215461,-0.471233 l -1.551531,-0.02622 0.05474,0.193003 c 0.08931,0.314911 0.120369,6.850264 0.03444,7.246284 -0.108458,0.499827 -0.45496,0.825907 -1.003061,0.943941 l -0.220339,0.04745 0,2.604783 0,2.604782 1.966102,0 1.966102,0 0,-3.217726 0,0 z M 11.652686,10.700574 c 0.711362,-0.314669 1.137799,-0.9799136 1.137799,-1.7749725 0,-2.0494129 -2.751371,-2.7021484 -3.6669342,-0.8699438 -0.8190285,1.639021 0.8521654,3.3867203 2.5291352,2.6449163 z m 5.229615,-0.04211 c 0.714619,-0.34963 1.086316,-1.0146901 1.036785,-1.8550725 -0.06356,-1.0783505 -0.834751,-1.8018874 -1.92502,-1.8060589 -0.401866,-0.00154 -0.544049,0.031244 -0.879421,0.2027593 -0.676147,0.3457946 -1.047988,0.9639898 -1.047988,1.7423078 0,1.4615693 1.485408,2.3668883 2.815644,1.7160643 l 0,0 z m 5.060622,0.0481 c 0.442102,-0.196447 0.704024,-0.452109 0.933359,-0.9110478 0.550419,-1.1014861 -0.01919,-2.3969485 -1.205568,-2.7418386 -0.923364,-0.2684292 -1.93215,0.2109966 -2.328281,1.1065173 -0.167818,0.3793783 -0.176054,1.0990034 -0.01694,1.4801878 0.430711,1.0318493 1.611893,1.5129903 2.617431,1.0661813 l 0,0 z"
       id="path2987"
       inkscape:connector-curvature="0" /></g><g
     inkscape:groupmode="layer"
     id="layer2"
     inkscape:label="Livello 1"
     style="display:inline"><path
       id="path3310"
       d="m 10.857143,18.571429 c 0,-1.285715 0,-6.428571 0,-6.428571 0,0 0.0033,-0.289286 0.153642,-0.642858 -1.3364993,0 -2.725071,0 -2.725071,0 0,0 -1.285714,0 -1.285714,1.285715 v 4.499999 c 0,1.285715 1.285714,1.285715 1.285714,1.285715 V 25 h 3.857143 v -5.142857 c 0,0 -1.285714,0 -1.285714,-1.285714 z m 0,-7.714286 c 0.334285,0 0.6435,-0.09258 0.917356,-0.241714 0.03793,-0.02315 0.08036,-0.04372 0.120858,-0.06621 0.534215,-0.342643 0.890358,-0.9385716 0.890358,-1.620643 0,-1.0652139 -0.863357,-1.928571 -1.928572,-1.928571 -1.0652139,0 -1.9285711,0.8633571 -1.9285711,1.928571 0,1.065214 0.8633572,1.928571 1.9285711,1.928571 z M 23.714286,11.5 h -2.724429 c 0.149785,0.353572 0.153,0.642858 0.153,0.642858 0,0 0,5.142856 0,6.428571 0,1.285714 -1.285714,1.285714 -1.285714,1.285714 V 25 h 3.857143 v -6.428571 c 0,0 1.285714,0 1.285714,-1.285715 C 25,16 25,12.785715 25,12.785715 25,12.785715 25,11.5 23.714286,11.5 z m -3.612858,-0.952071 c 0.04179,0.0225 0.08614,0.04372 0.124715,0.0675 0.273857,0.149143 0.582428,0.241714 0.916714,0.241714 1.065213,0 1.928571,-0.863357 1.928571,-1.928571 0,-1.0652139 -0.863358,-1.928571 -1.928571,-1.928571 -1.065215,0 -1.928572,0.8633571 -1.928572,1.928571 0,0.6807858 0.354857,1.276072 0.887143,1.619357 z M 16,10.857143 c 1.065215,0 1.928571,-0.863357 1.928571,-1.928571 0,-1.0652139 -0.863357,-1.928571 -1.928571,-1.928571 -1.065214,0 -1.928571,0.8633571 -1.928571,1.928571 0,1.065214 0.863357,1.928571 1.928571,1.928571 z m 3.857143,1.928572 c 0,0 0,-1.285715 -1.285715,-1.285715 -0.321428,0 -5.142856,0 -5.142856,0 0,0 -1.285715,0 -1.285715,1.285715 v 4.499999 c 0,1.285715 1.285715,1.285715 1.285715,1.285715 V 25 h 5.142856 v -6.428571 c 0,0 1.285715,0 1.285715,-1.285715 0,-1.285714 0,-4.499999 0,-4.499999 z"
       inkscape:connector-curvature="0" /></g></svg>