<?xml version="1.0" encoding="UTF-8" standalone="no"?>
<svg
   xmlns:dc="http://purl.org/dc/elements/1.1/"
   xmlns:cc="http://creativecommons.org/ns#"
   xmlns:rdf="http://www.w3.org/1999/02/22-rdf-syntax-ns#"
   xmlns:svg="http://www.w3.org/2000/svg"
   xmlns="http://www.w3.org/2000/svg"
   xmlns:sodipodi="http://sodipodi.sourceforge.net/DTD/sodipodi-0.dtd"
   xmlns:inkscape="http://www.inkscape.org/namespaces/inkscape"
   version="1.1"
   x="0px"
   y="0px"
   width="32px"
   height="32px"
   viewBox="0 0 32 32"
   enable-background="new 0 0 32 32"
   xml:space="preserve"
   id="svg2"
   inkscape:version="0.48.5 r10040"
   sodipodi:docname="group_full.svg"><defs
     id="defs3314" /><sodipodi:namedview
     pagecolor="#ffffff"
     bordercolor="#666666"
     borderopacity="1"
     objecttolerance="10"
     gridtolerance="10"
     guidetolerance="10"
     inkscape:pageopacity="0"
     inkscape:pageshadow="2"
     inkscape:window-width="1549"
     inkscape:window-height="876"
     id="namedview3312"
     showgrid="false"
     inkscape:zoom="14.75"
     inkscape:cx="-9.0384282"
     inkscape:cy="17.024846"
     inkscape:window-x="51"
     inkscape:window-y="24"
     inkscape:window-maximized="1"
     inkscape:current-layer="layer1" /><metadata
     id="metadata3302"><rdf:RDF><cc:Work
         rdf:about=""><dc:format>image/svg+xml</dc:format><dc:type
           rdf:resource="http://purl.org/dc/dcmitype/StillImage" /><dc:title>PICOL Icon</dc:title><dc:date>2009-03-15</dc:date><dc:creator><cc:Agent><dc:title>Melih Bilgil</dc:title></cc:Agent></dc:creator><dc:rights><cc:Agent><dc:title>Creative Commons BY-SA</dc:title></cc:Agent></dc:rights><dc:publisher><cc:Agent><dc:title>PICOL - Pictorial Communication Language</dc:title></cc:Agent></dc:publisher><dc:identifier>http://blog.picol.org</dc:identifier><dc:source>http://blog.picol.org</dc:source><dc:language>en</dc:language><dc:subject><rdf:Bag><rdf:li>PICOL</rdf:li><rdf:li>icon</rdf:li><rdf:li>icons</rdf:li><rdf:li>sign</rdf:li><rdf:li>GUI</rdf:li><rdf:li>vector</rdf:li><rdf:li>interface</rdf:li></rdf:Bag></dc:subject><dc:description>This is one icon out of all PICOL icons</dc:description><dc:contributor><cc:Agent><dc:title>Melih Bilgil (www.lonja.de), Christopher Adjei (www.boffer.net)</dc:title></cc:Agent></dc:contributor><cc:license
           rdf:resource="http://creativecommons.org/licenses/by-sa/3.0/" /></cc:Work><cc:License
         rdf:about="http://creativecommons.org/licenses/by-sa/3.0/"><cc:permits
           rdf:resource="http://creativecommons.org/ns#Reproduction" /><cc:permits
           rdf:resource="http://creativecommons.org/ns#Distribution" /><cc:requires
           rdf:resource="http://creativecommons.org/ns#Notice" /><cc:requires
           rdf:resource="http://creativecommons.org/ns#Attribution" /><cc:permits
           rdf:resource="http://creativecommons.org/ns#DerivativeWorks" /><cc:requires
           rdf:resource="http://creativecommons.org/ns#ShareAlike" /></cc:License></rdf:RDF></metadata><g
     id="background"><rect
       fill="none"
       width="32"
       height="32"
       id="rect3305" /></g><g
     inkscape:groupmode="layer"
     id="layer1"
     inkscape:label="sfondo"
     style="display:inline"><rect
       style="fill:#ff6600;display:inline;fill-opacity:1"
       id="rect3758"
       width="32.271187"
       height="32.271187"
       x="0"
       y="-0.067796625" /></g><g
     inkscape:groupmode="layer"
     id="layer2"
     inkscape:label="Livello 1"
     style="display:inline"><path
       id="path3310"
       d="m 10.857143,18.571429 c 0,-1.285715 0,-6.428571 0,-6.428571 0,0 0.0033,-0.289286 0.153642,-0.642858 -1.3364993,0 -2.725071,0 -2.725071,0 0,0 -1.285714,0 -1.285714,1.285715 v 4.499999 c 0,1.285715 1.285714,1.285715 1.285714,1.285715 V 25 h 3.857143 v -5.142857 c 0,0 -1.285714,0 -1.285714,-1.285714 z m 0,-7.714286 c 0.334285,0 0.6435,-0.09258 0.917356,-0.241714 0.03793,-0.02315 0.08036,-0.04372 0.120858,-0.06621 0.534215,-0.342643 0.890358,-0.9385716 0.890358,-1.620643 0,-1.0652139 -0.863357,-1.928571 -1.928572,-1.928571 -1.0652139,0 -1.9285711,0.8633571 -1.9285711,1.928571 0,1.065214 0.8633572,1.928571 1.9285711,1.928571 z M 23.714286,11.5 h -2.724429 c 0.149785,0.353572 0.153,0.642858 0.153,0.642858 0,0 0,5.142856 0,6.428571 0,1.285714 -1.285714,1.285714 -1.285714,1.285714 V 25 h 3.857143 v -6.428571 c 0,0 1.285714,0 1.285714,-1.285715 C 25,16 25,12.785715 25,12.785715 25,12.785715 25,11.5 23.714286,11.5 z m -3.612858,-0.952071 c 0.04179,0.0225 0.08614,0.04372 0.124715,0.0675 0.273857,0.149143 0.582428,0.241714 0.916714,0.241714 1.065213,0 1.928571,-0.863357 1.928571,-1.928571 0,-1.0652139 -0.863358,-1.928571 -1.928571,-1.928571 -1.065215,0 -1.928572,0.8633571 -1.928572,1.928571 0,0.6807858 0.354857,1.276072 0.887143,1.619357 z M 16,10.857143 c 1.065215,0 1.928571,-0.863357 1.928571,-1.928571 0,-1.0652139 -0.863357,-1.928571 -1.928571,-1.928571 -1.065214,0 -1.928571,0.8633571 -1.928571,1.928571 0,1.065214 0.863357,1.928571 1.928571,1.928571 z m 3.857143,1.928572 c 0,0 0,-1.285715 -1.285715,-1.285715 -0.321428,0 -5.142856,0 -5.142856,0 0,0 -1.285715,0 -1.285715,1.285715 v 4.499999 c 0,1.285715 1.285715,1.285715 1.285715,1.285715 V 25 h 5.142856 v -6.428571 c 0,0 1.285715,0 1.285715,-1.285715 0,-1.285714 0,-4.499999 0,-4.499999 z"
       inkscape:connector-curvature="0" /></g></svg>